<svg aria-hidden="true" >
  <symbol xmlns="http://www.w3.org/2000/svg"  viewBox="0 0 37 37" id="logo">
    <g >
      <path d="M18.5 34.888c-1.033 0-2.081-.232-2.898-.71l-8.48-4.887c-3.452-2.328-3.668-2.682-3.668-6.336v-8.91c0-3.655.2-4.01 3.592-6.306l8.54-4.933c1.62-.94 4.163-.94 5.782 0l8.51 4.902c3.453 2.328 3.669 2.682 3.669 6.336v8.896c0 3.653-.2 4.008-3.592 6.305l-8.541 4.933c-.833.478-1.88.71-2.914.71Zm0-30.464c-.647 0-1.28.124-1.726.386l-8.48 4.902c-2.512 1.696-2.512 1.696-2.512 4.332v8.896c0 2.636 0 2.636 2.574 4.378l8.418 4.856c.91.524 2.559.524 3.468 0l8.48-4.902c2.497-1.696 2.497-1.696 2.497-4.332v-8.896c0-2.636 0-2.636-2.575-4.378L20.227 4.81c-.447-.262-1.08-.386-1.727-.386Z"></path>
      <path d="M18.5 24.281a5.783 5.783 0 0 1-5.781-5.781 5.783 5.783 0 0 1 5.781-5.781 5.783 5.783 0 0 1 5.781 5.781 5.783 5.783 0 0 1-5.781 5.781Zm0-9.25a3.474 3.474 0 0 0-3.469 3.469 3.474 3.474 0 0 0 3.469 3.469 3.474 3.474 0 0 0 3.469-3.469 3.474 3.474 0 0 0-3.469-3.469Z"></path>
    </g>
  </symbol>
  <symbol xmlns="http://www.w3.org/2000/svg"  viewBox="0 0 24 24" id="dashboard">
    <path d="M13.75,21.5H7.75c-5.43,0-7.75-2.32-7.75-7.75V7.75C0,2.32,2.32,0,7.75,0h6c5.43,0,7.75,2.32,7.75,7.75v6c0,5.43-2.32,7.75-7.75,7.75ZM7.75,1.5C3.14,1.5,1.5,3.14,1.5,7.75v6c0,4.61,1.64,6.25,6.25,6.25h6c4.61,0,6.25-1.64,6.25-6.25V7.75c0-4.61-1.64-6.25-6.25-6.25H7.75Z"/>
  <path d="M7.55,17c-.07,0-.15,0-.22-.02l-1.19-.16c-.72-.09-1.35-.71-1.46-1.45l-.16-1.21c-.07-.46,.13-1.07,.47-1.44l2.29-2.29c-.34-1.62,.15-3.3,1.33-4.48,1.91-1.91,5.03-1.91,6.95,0,.93,.92,1.44,2.15,1.44,3.46s-.51,2.55-1.43,3.48h0c-1.19,1.19-2.87,1.68-4.49,1.33l-2.29,2.28c-.28,.3-.78,.5-1.24,.5ZM12.08,6.02c-.87,0-1.75,.33-2.41,1-.9,.9-1.22,2.21-.84,3.43,.08,.27,0,.55-.19,.75l-2.58,2.58s-.06,.14-.06,.19l.16,1.2c0,.06,.11,.17,.17,.18l1.21,.16c.06,0,.15-.03,.19-.05l.42-.42-.33-.33c-.29-.29-.29-.77,0-1.06,.29-.29,.77-.29,1.06,0l.32,.33,1.11-1.11c.2-.2,.49-.26,.75-.18,1.21,.38,2.52,.06,3.42-.84h0c.64-.65,1-1.51,1-2.42s-.35-1.76-.99-2.4c-.67-.66-1.55-1-2.42-1Zm2.95,6.35h0Z"/>
  <path class="cls-1" d="M12.15,10.45c-.55,0-1-.45-1-1s.44-1,1-1h0c.55,0,1,.45,1,1s-.45,1-1,1Z"/>
  </symbol>
  <symbol xmlns="http://www.w3.org/2000/svg"  viewBox="0 0 24 24" id="product">
    <g >
      <path d="M15 22.75H9c-5.43 0-7.75-2.32-7.75-7.75V9c0-5.43 2.32-7.75 7.75-7.75h6c5.43 0 7.75 2.32 7.75 7.75v6c0 5.43-2.32 7.75-7.75 7.75Zm-6-20C4.39 2.75 2.75 4.39 2.75 9v6c0 4.61 1.64 6.25 6.25 6.25h6c4.61 0 6.25-1.64 6.25-6.25V9c0-4.61-1.64-6.25-6.25-6.25H9Z"></path>
      <path d="M12 13.08c-.13 0-.26-.03-.38-.1l-5.3-3.06a.742.742 0 0 1-.27-1.02c.21-.36.67-.48 1.02-.27l4.92 2.85 4.89-2.83c.36-.21.82-.08 1.02.27.2.35.08.82-.27 1.02l-5.26 3.04c-.11.06-.24.1-.37.1Z"></path>
      <path d="M12 18.52c-.41 0-.75-.34-.75-.75v-5.44c0-.41.34-.75.75-.75s.75.34.75.75v5.44c0 .41-.34.75-.75.75Z"></path>
      <path d="M12 18.75c-.58 0-1.15-.13-1.61-.38l-3.2-1.78c-.96-.53-1.7-1.8-1.7-2.9V10.3c0-1.09.75-2.36 1.7-2.9l3.2-1.78c.92-.51 2.3-.51 3.22 0l3.2 1.78c.96.53 1.7 1.8 1.7 2.9v3.39c0 1.09-.75 2.36-1.7 2.9l-3.2 1.78c-.46.26-1.03.38-1.61.38Zm0-12c-.33 0-.65.06-.88.19l-3.2 1.78c-.49.27-.93 1.03-.93 1.58v3.39c0 .56.44 1.31.93 1.58l3.2 1.78c.46.26 1.3.26 1.76 0l3.2-1.78c.49-.27.93-1.03.93-1.58V10.3c0-.56-.44-1.31-.93-1.58l-3.2-1.78c-.23-.13-.55-.19-.88-.19Z"></path>
    </g>
  </symbol>
  <symbol xmlns="http://www.w3.org/2000/svg"  viewBox="0 0 24 24" id="income">
    <g  stroke-linecap="round" stroke-linejoin="round" stroke-width="1.5">
  <path d="M7.18,22.75c-2.39,0-4.33-1.73-4.33-3.86v-2.03c0-.41,.34-.75,.75-.75s.75,.34,.75,.75c0,1.25,1.22,2.19,2.83,2.19s2.82-.94,2.82-2.19c0-.41,.34-.75,.75-.75s.75,.34,.75,.75v2.03c0,2.13-1.94,3.86-4.32,3.86Zm-2.58-2.88c.45,.82,1.43,1.38,2.58,1.38s2.12-.57,2.57-1.38c-.71,.43-1.59,.68-2.57,.68s-1.87-.25-2.58-.68Z"/>
  <path d="M7.17,17.8c-1.63,0-3.1-.74-3.84-1.94-.32-.54-.49-1.14-.49-1.75,0-1.04,.46-2.02,1.3-2.75,1.6-1.4,4.4-1.42,6.04,0,.84,.7,1.32,1.71,1.32,2.76,0,.61-.17,1.21-.49,1.75-.73,1.2-2.2,1.94-3.84,1.94Zm0-6.04c-.78,0-1.5,.26-2.04,.72-.51,.44-.78,1.02-.78,1.63,0,.34,.09,.67,.27,.97,.46,.75,1.44,1.22,2.56,1.22s2.1-.47,2.56-1.22c.18-.3,.27-.63,.27-.97,0-.62-.28-1.19-.79-1.61-.55-.48-1.28-.74-2.05-.74Z"/>
  <path d="M7.18,20.55c-2.43,0-4.33-1.62-4.33-3.69v-2.75c0-2.13,1.94-3.86,4.33-3.86,1.13,0,2.2,.39,3.02,1.09,.84,.74,1.3,1.72,1.3,2.77v2.75c0,2.1-1.86,3.69-4.32,3.69Zm0-8.8c-1.56,0-2.83,1.06-2.83,2.36v2.75c0,1.25,1.22,2.19,2.83,2.19s2.82-.94,2.82-2.19v-2.75c0-.61-.28-1.19-.78-1.64-.54-.47-1.27-.72-2.04-.72Zm11.86,3.05c-1.51,0-2.79-1.12-2.91-2.56-.08-.83,.22-1.64,.82-2.23,.5-.52,1.21-.81,1.96-.81h2.08c.99,.04,1.75,.81,1.75,1.77v2.06c0,.96-.76,1.74-1.72,1.77h-1.99Zm1.93-4.1h-2.05c-.35,0-.67,.13-.9,.37-.29,.28-.43,.66-.39,1.04,.05,.66,.69,1.19,1.41,1.19h1.96c.13,0,.25-.12,.25-.27v-2.06c0-.15-.12-.27-.28-.27Z"/>
  <path d="M16,21.25h-2.5c-.41,0-.75-.34-.75-.75s.34-.75,.75-.75h2.5c2.58,0,4.25-1.67,4.25-4.25v-.7h-1.21c-1.51,0-2.79-1.12-2.91-2.56-.08-.83,.22-1.64,.82-2.23,.5-.52,1.21-.81,1.96-.81h1.33v-.7c0-2.34-1.37-3.95-3.59-4.21-.24-.04-.45-.04-.66-.04H7c-.24,0-.47,.02-.7,.05-2.2,.28-3.55,1.88-3.55,4.2v2c0,.41-.34,.75-.75,.75s-.75-.34-.75-.75v-2c0-3.08,1.9-5.31,4.85-5.68,.28-.04,.59-.07,.9-.07h9c.24,0,.55,0,.87,.06,2.95,.34,4.88,2.58,4.88,5.69v1.45c0,.41-.34,.75-.75,.75h-2.08c-.35,0-.67,.13-.9,.37-.29,.28-.43,.66-.39,1.04,.05,.66,.69,1.19,1.41,1.19h1.96c.41,0,.75,.34,.75,.75v1.45c0,3.44-2.31,5.75-5.75,5.75Z"/>
    </g>
  </symbol>
  <symbol xmlns="http://www.w3.org/2000/svg"  viewBox="0 0 24 24" id="promote">
    <g >
      <path d="M12 22.75c-.63 0-1.22-.24-1.66-.69l-1.52-1.52c-.12-.12-.44-.25-.6-.25H6.06c-1.3 0-2.35-1.05-2.35-2.35v-2.16c0-.16-.13-.48-.25-.6l-1.52-1.52c-.44-.44-.69-1.03-.69-1.66 0-.63.24-1.22.69-1.66l1.52-1.52c.12-.12.25-.44.25-.6V6.06c0-1.3 1.05-2.35 2.35-2.35h2.16c.16 0 .48-.13.6-.25l1.52-1.52c.88-.88 2.44-.88 3.32 0l1.52 1.52c.12.12.44.25.6.25h2.16c1.3 0 2.35 1.05 2.35 2.35v2.16c0 .16.13.48.25.6l1.52 1.52c.44.44.69 1.03.69 1.66 0 .63-.24 1.22-.69 1.66l-1.52 1.52c-.12.12-.25.44-.25.6v2.16c0 1.3-1.05 2.35-2.35 2.35h-2.16c-.16 0-.48.13-.6.25l-1.52 1.52c-.44.45-1.03.69-1.66.69Zm-7.48-8.63c.4.4.69 1.1.69 1.66v2.16c0 .47.38.85.85.85h2.16c.56 0 1.26.29 1.66.69L11.4 21c.32.32.88.32 1.2 0l1.52-1.52c.4-.4 1.1-.69 1.66-.69h2.16c.47 0 .85-.38.85-.85v-2.16c0-.56.29-1.26.69-1.66L21 12.6a.84.84 0 0 0 .25-.6.84.84 0 0 0-.25-.6l-1.52-1.52c-.4-.4-.69-1.1-.69-1.66V6.06a.85.85 0 0 0-.85-.85h-2.16c-.56 0-1.26-.29-1.66-.69L12.6 3a.87.87 0 0 0-1.2 0L9.88 4.52c-.4.4-1.1.69-1.66.69H6.06a.85.85 0 0 0-.85.85v2.16c0 .56-.29 1.26-.69 1.66L3 11.4a.84.84 0 0 0-.25.6c0 .23.09.44.25.6l1.52 1.52Z"></path>
      <path d="M15 16c-.56 0-1.01-.45-1.01-1s.45-1 1-1 1 .45 1 1-.44 1-.99 1Zm-5.99-6C8.45 10 8 9.55 8 9s.45-1 1-1 1 .45 1 1-.44 1-.99 1ZM9 15.75c-.19 0-.38-.07-.53-.22a.754.754 0 0 1 0-1.06l6-6c.29-.29.77-.29 1.06 0 .29.29.29.77 0 1.06l-6 6c-.15.15-.34.22-.53.22Z"></path>
    </g>
  </symbol>
  <symbol xmlns="http://www.w3.org/2000/svg"  viewBox="0 0 24 24" id="help">
    <g >
      <path d="M8 22.32c-.28 0-.57-.07-.83-.21-.57-.3-.92-.9-.92-1.54v-1.42c-3.02-.31-5-2.53-5-5.71v-6C1.25 4 3.56 1.69 7 1.69h10c3.44 0 5.75 2.31 5.75 5.75v6c0 3.44-2.31 5.75-5.75 5.75h-3.77l-4.26 2.84c-.29.19-.63.29-.97.29ZM7 3.18c-2.58 0-4.25 1.67-4.25 4.25v6c0 2.58 1.67 4.25 4.25 4.25.41 0 .75.34.75.75v2.13c0 .13.08.19.13.22s.15.06.26-.01l4.45-2.96c.12-.08.27-.13.42-.13h4c2.58 0 4.25-1.67 4.25-4.25v-6c0-2.58-1.67-4.25-4.25-4.25H7Z"></path>
      <path d="M12 12.11c-.41 0-.75-.34-.75-.75v-.21c0-1.16.85-1.73 1.17-1.95.37-.25.49-.42.49-.68 0-.5-.41-.91-.91-.91s-.91.41-.91.91c0 .41-.34.75-.75.75s-.75-.34-.75-.75c0-1.33 1.08-2.41 2.41-2.41s2.41 1.08 2.41 2.41c0 1.14-.84 1.71-1.15 1.92-.39.26-.51.43-.51.71v.21c0 .42-.34.75-.75.75Zm0 2.49a.749.749 0 1 1-.002-1.498A.749.749 0 0 1 12 14.6Z"></path>
    </g>
  </symbol>
  <symbol xmlns="http://www.w3.org/2000/svg"  viewBox="0 0 24 24" id="search">
		<path d="M11,20c-5,0-9-4-9-9c0-5,4-9,9-9c5,0,9,4,9,9C20,16,16,20,11,20z M11,4c-3.9,0-7,3.1-7,7c0,3.9,3.1,7,7,7
			c3.9,0,7-3.1,7-7C18,7.1,14.9,4,11,4z"/>
		<path d="M21,22c-0.3,0-0.5-0.1-0.7-0.3l-4.3-4.4c-0.4-0.4-0.4-1,0-1.4s1-0.4,1.4,0l4.3,4.4c0.4,0.4,0.4,1,0,1.4
			C21.5,21.9,21.3,22,21,22z"/>
  </symbol>
  <symbol xmlns="http://www.w3.org/2000/svg"  viewBox="0 0 24 24" id="customers">
  <path d="M13.75,21.5H7.75c-1.32,0-2.42-.13-3.35-.41-.34-.1-.56-.43-.54-.78,.25-2.99,3.28-5.34,6.89-5.34s6.63,2.34,6.89,5.34c.03,.36-.19,.68-.54,.78-.93,.28-2.03,.41-3.35,.41Zm-8.28-1.69c.66,.13,1.41,.19,2.28,.19h6c.87,0,1.62-.06,2.28-.19-.53-1.92-2.72-3.34-5.28-3.34s-4.75,1.42-5.28,3.34Z"/>
  <path d="M4.61,21.12c-.07,0-.14,0-.2-.03-3.01-.85-4.41-3.18-4.41-7.34V7.75C0,2.32,2.32,0,7.75,0h6c5.43,0,7.75,2.32,7.75,7.75v6c0,4.16-1.4,6.49-4.41,7.34-.22,.06-.45,.02-.63-.1-.18-.13-.3-.33-.32-.55-.19-2.22-2.56-3.96-5.39-3.96s-5.2,1.74-5.39,3.96c-.02,.22-.14,.43-.32,.55-.13,.09-.28,.13-.43,.13Zm6.14-6.15c3.22,0,5.98,1.87,6.71,4.39,1.77-.82,2.54-2.55,2.54-5.61V7.75c0-4.61-1.64-6.25-6.25-6.25H7.75C3.14,1.5,1.5,3.14,1.5,7.75v6c0,3.06,.77,4.79,2.54,5.61,.74-2.53,3.49-4.39,6.71-4.39Zm0-1.3c-2.39,0-4.33-1.95-4.33-4.34s1.94-4.33,4.33-4.33,4.33,1.94,4.33,4.33-1.94,4.34-4.33,4.34Zm0-7.17c-1.56,0-2.83,1.27-2.83,2.83s1.27,2.84,2.83,2.84,2.83-1.27,2.83-2.84-1.27-2.83-2.83-2.83Z"/>
  <path d="M10.75,13.67c-2.39,0-4.33-1.95-4.33-4.34,0-2.39,1.94-4.33,4.33-4.33s4.33,1.94,4.33,4.33c0,2.39-1.94,4.33-4.33,4.34Zm0-7.17c-1.57,.04-2.8,1.34-2.76,2.91,.04,1.51,1.25,2.72,2.76,2.76,1.57-.04,2.8-1.34,2.76-2.91-.04-1.51-1.25-2.72-2.76-2.76Z"/>
  </symbol>
  <symbol xmlns="http://www.w3.org/2000/svg"  viewBox="0 0 16 16"  id="arrow-right">
	<path d="M6,13c-0.3,0-0.5-0.1-0.7-0.3c-0.4-0.4-0.4-1,0-1.4L8.6,8L5.3,4.7c-0.4-0.4-0.4-1,0-1.4s1-0.4,1.4,0l4,4
		c0.4,0.4,0.4,1,0,1.4l-4,4C6.5,12.9,6.3,13,6,13z"/>  
    </symbol>
</svg>